<svg width="24" height="24" viewBox="0 0 24 24" fill="none" xmlns="http://www.w3.org/2000/svg">
<path fill-rule="evenodd" clip-rule="evenodd" d="M0 23.988H23.988V0H0V23.988Z" fill="#006FCF"/>
<path fill-rule="evenodd" clip-rule="evenodd" d="M5.49609 12.5038H8.56809V20.2078H18.1201L19.6081 18.5398L21.0961 20.2078H23.9881V3.86384H20.4721L19.6561 6.05984L18.8521 3.86384H14.3041V6.76784L13.0081 3.86384L9.31214 3.83984L5.49609 12.5038Z" fill="#FEFEFE"/>
<path fill-rule="evenodd" clip-rule="evenodd" d="M21.6237 12.5039L19.6557 14.6639L17.7117 12.5039H9.59961V19.2359H17.6396L19.6077 17.0879L21.5997 19.2359H23.9877L20.8437 15.8699L23.9877 12.5039H21.6237ZM11.4236 14.0759H15.3236V12.5519L18.4556 15.8699L15.3236 19.1639V17.6639H11.4236V16.6199H15.2277V15.1319H11.4236V14.0759Z" fill="#006FCF"/>
<path fill-rule="evenodd" clip-rule="evenodd" d="M22.1641 15.8577L23.9881 17.8076V13.9316L22.1641 15.8577Z" fill="#2D6EB6"/>
<path fill-rule="evenodd" clip-rule="evenodd" d="M21.1681 4.82422L19.6801 8.96422L18.1681 4.82422H15.2881V11.4362L12.3481 4.82422H9.98409L6.99609 11.5562H9.04809L9.56409 10.2122H12.6601L13.2481 11.5562H17.1241V6.88822L18.8521 11.5562H20.4481L22.2001 6.88822V11.5562H23.9881V4.82422H21.1681ZM11.1132 6.54022H11.1721L12.0504 8.70022H10.2241L11.1132 6.54022Z" fill="#006FCF"/>
</svg>
