<svg width="37" height="24" viewBox="0 0 37 24" fill="none" xmlns="http://www.w3.org/2000/svg">
<path fill-rule="evenodd" clip-rule="evenodd" d="M0.128906 0.343866L0.134074 23.7441L36.8389 23.7435V0.341797L0.128906 0.343866Z" fill="#FEFEFE"/>
<path fill-rule="evenodd" clip-rule="evenodd" d="M36.7098 13.3564C36.7098 13.3564 26.6787 20.4414 8.30664 23.6123H36.7098V13.3564Z" fill="#F4811F"/>
<mask id="mask0" mask-type="alpha" maskUnits="userSpaceOnUse" x="0" y="0" width="37" height="24">
<path fill-rule="evenodd" clip-rule="evenodd" d="M0 0.207031H36.9735V23.8782H0V0.207031Z" fill="white"/>
</mask>
<g mask="url(#mask0)">
<path fill-rule="evenodd" clip-rule="evenodd" d="M36.7065 0.475376V23.6097H0.267061C0.267061 23.3474 0.265615 0.739997 0.265615 0.476204C0.531849 0.476204 36.4388 0.475376 36.7065 0.475376ZM36.84 0.207031L0 0.210755V23.8783H36.9735L36.9713 0.207031H36.84Z" fill="#231F20"/>
</g>
<path fill-rule="evenodd" clip-rule="evenodd" d="M4.45219 11.4731C4.12436 11.7696 3.69835 11.8989 3.02408 11.8989H2.74399V8.35744H3.02408C3.69835 8.35744 4.10762 8.47826 4.45219 8.79068C4.8131 9.1122 5.03014 9.61082 5.03014 10.1237C5.03014 10.6379 4.8131 11.1516 4.45219 11.4731ZM3.23305 7.4502H1.70117V12.8053H3.22499C4.03527 12.8053 4.62024 12.6141 5.1339 12.1871C5.7443 11.6816 6.10521 10.9196 6.10521 10.1316C6.10521 8.55109 4.92555 7.4502 3.23305 7.4502Z" fill="#231F20"/>
<mask id="mask1" mask-type="alpha" maskUnits="userSpaceOnUse" x="0" y="0" width="37" height="24">
<path fill-rule="evenodd" clip-rule="evenodd" d="M0 23.8783H36.9735V0.207031H0V23.8783Z" fill="white"/>
</mask>
<g mask="url(#mask1)">
<path fill-rule="evenodd" clip-rule="evenodd" d="M6.58594 12.8055H7.62959V7.4502H6.58594V12.8055Z" fill="#231F20"/>
<path fill-rule="evenodd" clip-rule="evenodd" d="M10.1803 9.50478C9.55399 9.27285 9.37023 9.11995 9.37023 8.8305C9.37023 8.49326 9.69785 8.23691 10.1476 8.23691C10.4602 8.23691 10.7173 8.3656 10.9891 8.67057L11.5352 7.95491C11.0865 7.56202 10.5497 7.36133 9.96305 7.36133C9.01635 7.36133 8.29433 8.01926 8.29433 8.89567C8.29433 9.63347 8.63043 10.0113 9.61062 10.3642C10.0193 10.5086 10.2272 10.6046 10.332 10.6692C10.5406 10.8055 10.645 10.9986 10.645 11.2235C10.645 11.6573 10.3004 11.9788 9.83469 11.9788C9.33695 11.9788 8.93594 11.7295 8.69575 11.2644L8.02148 11.9143C8.50228 12.6208 9.07981 12.9339 9.87396 12.9339C10.9583 12.9339 11.7192 12.212 11.7192 11.1755C11.7192 10.3245 11.3674 9.93947 10.1803 9.50478Z" fill="#231F20"/>
<path fill-rule="evenodd" clip-rule="evenodd" d="M12.0488 10.1315C12.0488 11.7056 13.2837 12.9261 14.8728 12.9261C15.322 12.9261 15.7069 12.8377 16.1813 12.6141V11.3845C15.7641 11.8024 15.3945 11.971 14.9214 11.971C13.8703 11.971 13.1243 11.2082 13.1243 10.1237C13.1243 9.09558 13.8939 8.28455 14.8728 8.28455C15.3706 8.28455 15.7474 8.46227 16.1813 8.88703V7.65807C15.7232 7.42552 15.3466 7.3291 14.8974 7.3291C13.3163 7.3291 12.0488 8.57441 12.0488 10.1315Z" fill="#231F20"/>
<path fill-rule="evenodd" clip-rule="evenodd" d="M24.4555 11.0473L23.0289 7.4502H21.8887L24.1591 12.9429H24.7207L27.0321 7.4502H25.9008L24.4555 11.0473Z" fill="#231F20"/>
<path fill-rule="evenodd" clip-rule="evenodd" d="M27.5039 12.8055H30.4635V11.8989H28.5467V10.4533H30.393V9.54626H28.5467V8.35764H30.4635V7.4502H27.5039V12.8055Z" fill="#231F20"/>
<path fill-rule="evenodd" clip-rule="evenodd" d="M32.5035 9.91578H32.1987V8.29392H32.5201C33.1702 8.29392 33.5234 8.5664 33.5234 9.08757C33.5234 9.62592 33.1702 9.91578 32.5035 9.91578ZM34.5972 9.0313C34.5972 8.02868 33.9073 7.4502 32.7038 7.4502H31.1562V12.8055H32.1987V10.6542H32.3349L33.7793 12.8055H35.0627L33.3783 10.5495C34.1644 10.3896 34.5972 9.85123 34.5972 9.0313Z" fill="#231F20"/>
<path fill-rule="evenodd" clip-rule="evenodd" d="M22.2815 10.1563C22.2815 11.7614 20.9814 13.0623 19.378 13.0623C17.7742 13.0623 16.4746 11.7614 16.4746 10.1563C16.4746 8.55117 17.7742 7.25 19.378 7.25C20.9814 7.25 22.2815 8.55117 22.2815 10.1563Z" fill="#F48120"/>
<path fill-rule="evenodd" clip-rule="evenodd" d="M35.1059 7.72925H35.0809V7.59848H35.1075C35.1802 7.59848 35.2182 7.6198 35.2182 7.66288C35.2182 7.70706 35.1797 7.72925 35.1059 7.72925ZM35.3655 7.6609C35.3655 7.56134 35.2809 7.50684 35.1319 7.50684H34.9336V8.00684H35.0809V7.81277L35.2537 8.00684H35.4336L35.2307 7.80068C35.3175 7.78156 35.3655 7.73035 35.3655 7.6609Z" fill="#231F20"/>
<path fill-rule="evenodd" clip-rule="evenodd" d="M35.1053 8.07739C34.9257 8.07739 34.7787 7.9276 34.7787 7.74097C34.7787 7.55353 34.9238 7.40394 35.1053 7.40394C35.2841 7.40394 35.4298 7.55684 35.4298 7.74097C35.4298 7.92615 35.2841 8.07739 35.1053 8.07739ZM35.107 7.33008C34.8785 7.33008 34.6973 7.51235 34.6973 7.74035C34.6973 7.96815 34.8806 8.15063 35.107 8.15063C35.3294 8.15063 35.5117 7.96608 35.5117 7.74035C35.5117 7.51566 35.3294 7.33008 35.107 7.33008Z" fill="#231F20"/>
</g>
</svg>
