<svg width="31" height="24" viewBox="0 0 31 24" fill="none" xmlns="http://www.w3.org/2000/svg">
<rect width="31" height="24" fill="white"/>
<path fill-rule="evenodd" clip-rule="evenodd" d="M6.67354 22.5049C6.69845 22.0845 7.06091 21.7638 7.48299 21.7885C7.90506 21.8136 8.22725 22.1741 8.20234 22.5945C8.17876 22.9957 7.84571 23.3098 7.44192 23.3119C7.02196 23.3201 6.67487 22.9878 6.66692 22.5697C6.66639 22.5481 6.66692 22.5265 6.66824 22.5049H6.67354ZM8.72431 22.5049V21.2442H8.1732V21.5501C7.98322 21.3067 7.68753 21.1696 7.37833 21.1806C6.64678 21.1806 6.05354 21.7711 6.05354 22.4993C6.05354 23.2278 6.64678 23.818 7.37833 23.818C7.68753 23.8293 7.98322 23.6922 8.1732 23.4488V23.7547H8.72431V22.5049ZM27.3323 22.5049C27.3572 22.0845 27.7196 21.7638 28.1417 21.7885C28.5638 21.8136 28.886 22.1741 28.8611 22.5945C28.8372 22.9957 28.5047 23.3098 28.1006 23.3119C27.6807 23.3172 27.336 22.9825 27.3307 22.5647C27.3304 22.5444 27.3309 22.5246 27.3323 22.5049ZM30.2468 23.5756V23.6389H30.3051C30.3154 23.6421 30.3265 23.6421 30.3371 23.6389C30.3406 23.6313 30.3406 23.6226 30.3371 23.6152C30.3406 23.6078 30.3406 23.5986 30.3371 23.5912C30.3265 23.588 30.3154 23.588 30.3051 23.5912L30.2468 23.5756ZM30.3051 23.5308C30.3297 23.5295 30.3541 23.5369 30.374 23.5519C30.3907 23.5653 30.3994 23.5862 30.3978 23.6073C30.3986 23.6249 30.392 23.6421 30.3793 23.6545C30.3639 23.6685 30.3443 23.6769 30.3236 23.6782L30.4005 23.7652H30.3395L30.268 23.6782H30.2441V23.7652H30.1941V23.5332L30.3051 23.5308ZM30.2892 23.8444C30.3154 23.8446 30.3419 23.8394 30.366 23.8288C30.3888 23.8185 30.4095 23.8043 30.427 23.7863C30.4956 23.7117 30.4956 23.5975 30.427 23.5226C30.4095 23.5049 30.3888 23.4904 30.366 23.4804C30.3419 23.4699 30.3154 23.4649 30.2892 23.4649C30.2627 23.4649 30.2367 23.4701 30.2123 23.4804C30.1885 23.4902 30.167 23.5047 30.149 23.5226C30.0801 23.5975 30.0801 23.7117 30.149 23.7863C30.167 23.8045 30.1885 23.8188 30.2123 23.8288C30.2391 23.8401 30.2682 23.8457 30.2971 23.8444H30.2892ZM30.2892 23.3989C30.3236 23.3984 30.3581 23.4047 30.3899 23.4174C30.4203 23.4298 30.4482 23.4474 30.472 23.4699C30.4953 23.4928 30.5141 23.5197 30.5276 23.5492C30.5549 23.6112 30.5549 23.6822 30.5276 23.7441C30.5141 23.774 30.4953 23.8006 30.472 23.8235C30.4482 23.846 30.4203 23.8636 30.3899 23.876C30.3583 23.89 30.3239 23.8971 30.2892 23.8971C30.1866 23.8963 30.0939 23.837 30.0507 23.7441C30.024 23.6819 30.024 23.6115 30.0507 23.5492C30.0642 23.5197 30.0833 23.4928 30.1064 23.4699C30.1302 23.4474 30.1583 23.4298 30.1885 23.4174C30.2232 23.4037 30.2603 23.3973 30.2971 23.3989H30.2892ZM29.3698 22.5049V20.2314H28.8399V21.5501C28.6499 21.3067 28.3542 21.1696 28.045 21.1806C27.3132 21.1806 26.7202 21.7711 26.7202 22.4993C26.7202 23.2278 27.3132 23.818 28.045 23.818C28.3542 23.8293 28.6499 23.6922 28.8399 23.4488V23.7547H29.3698V22.5049ZM15.5629 21.6714C15.9094 21.6641 16.1966 21.9378 16.2041 22.2828V22.283H14.8793C14.8991 21.931 15.1983 21.6593 15.5523 21.6714H15.5629ZM15.5629 21.1806C14.8313 21.1912 14.2465 21.7896 14.2566 22.518C14.267 23.2462 14.8684 23.8285 15.6 23.818C15.9812 23.8378 16.3561 23.7154 16.6518 23.4754L16.3869 23.0692C16.1776 23.2359 15.9187 23.329 15.6503 23.333C15.2717 23.3654 14.9357 23.0919 14.8925 22.7158H16.7737V22.5049C16.7737 21.7136 16.2809 21.1862 15.5708 21.1862L15.5629 21.1806ZM22.2133 22.4993C22.2382 22.0792 22.6007 21.7587 23.0227 21.7835C23.4451 21.8081 23.767 22.1691 23.7421 22.589C23.7182 22.9904 23.3855 23.3042 22.9817 23.3063C22.5617 23.3119 22.217 22.9772 22.212 22.5592C22.2117 22.5394 22.2122 22.5194 22.2133 22.4993ZM24.2643 22.4993V21.2442H23.7132V21.5501C23.5232 21.3067 23.2275 21.1696 22.9183 21.1806C22.1865 21.1806 21.5935 21.7711 21.5935 22.4993C21.5935 23.2278 22.1865 23.818 22.9183 23.818C23.2275 23.8293 23.5232 23.6922 23.7132 23.4488V23.7547H24.2643V22.4993ZM19.1027 22.4993C19.0767 23.2027 19.6284 23.7935 20.3347 23.8193C20.3742 23.8206 20.4142 23.8204 20.454 23.818C20.7849 23.8349 21.11 23.7278 21.3654 23.5176L21.1005 23.0743C20.91 23.219 20.6776 23.2987 20.4381 23.3013C19.9903 23.2652 19.6567 22.8746 19.693 22.4289C19.7251 22.0333 20.0406 21.7192 20.4381 21.687C20.6776 21.6896 20.91 21.7693 21.1005 21.9141L21.3654 21.4707C21.11 21.2608 20.7849 21.1535 20.454 21.1701C19.7484 21.1305 19.1438 21.6675 19.104 22.3698C19.1016 22.4096 19.1011 22.4492 19.1027 22.4888V22.4993ZM26.2035 21.1806C25.9298 21.1727 25.6736 21.3143 25.5358 21.5501V21.2442H24.99V23.7652H25.5411V22.3519C25.5411 21.9352 25.7216 21.7031 26.0711 21.7031C26.189 21.7012 26.3061 21.7229 26.4155 21.7661L26.5851 21.2387C26.4592 21.1938 26.3267 21.1706 26.1929 21.1701L26.2035 21.1806ZM11.4428 21.4444C11.1309 21.2598 10.7722 21.1685 10.4094 21.1806C9.76824 21.1806 9.34961 21.4868 9.34961 21.9877C9.34961 22.3994 9.65696 22.6525 10.224 22.7314L10.4889 22.7686C10.791 22.8105 10.9341 22.8899 10.9341 23.0323C10.9341 23.2272 10.7327 23.338 10.3564 23.338C10.0539 23.3467 9.75711 23.2541 9.51388 23.0743L9.24893 23.5015C9.57005 23.7249 9.95451 23.8396 10.3458 23.8288C11.0771 23.8288 11.5011 23.486 11.5011 23.0057C11.5011 22.5257 11.1672 22.3308 10.6161 22.2514L10.3511 22.2145C10.1127 22.1828 9.92192 22.1356 9.92192 21.9668C9.92192 21.7978 10.1021 21.6714 10.4041 21.6714C10.6834 21.6746 10.9571 21.749 11.199 21.8874L11.4428 21.4444ZM18.5489 21.1806C18.2752 21.1727 18.019 21.3143 17.8812 21.5501V21.2442H17.3354V23.7652H17.8865V22.3519C17.8865 21.9352 18.0667 21.7031 18.4164 21.7031C18.5344 21.7012 18.6515 21.7229 18.7609 21.7661L18.9305 21.2387C18.8046 21.1938 18.6721 21.1706 18.5383 21.1701L18.5489 21.1806ZM13.8486 21.2442H12.9424V20.4791H12.386V21.2442H11.8826V21.745H12.3966V22.9057C12.3966 23.491 12.6245 23.8394 13.2763 23.8394C13.5198 23.8399 13.7585 23.7724 13.9652 23.6439L13.8062 23.1745C13.6583 23.2623 13.4906 23.3114 13.3187 23.3169C13.0537 23.3169 12.953 23.1481 12.953 22.8949V21.745H13.8539L13.8486 21.2442ZM5.61636 23.7652V22.1828C5.6524 21.6656 5.26026 21.2173 4.74068 21.1814C4.7004 21.1788 4.66013 21.1785 4.62012 21.1806C4.26349 21.1577 3.92249 21.3294 3.72987 21.6292C3.55446 21.3381 3.23334 21.1661 2.8926 21.1806C2.59611 21.1659 2.31393 21.3083 2.15072 21.5551V21.2442H1.59961V23.7652H2.15602V22.3783C2.11177 22.0549 2.33911 21.7569 2.66368 21.7129C2.70104 21.7078 2.7384 21.7063 2.77602 21.7081C3.14166 21.7081 3.32713 21.9457 3.32713 22.373V23.7758H3.88354V22.3783C3.84088 22.0531 4.0706 21.755 4.39703 21.7126C4.43253 21.7081 4.46804 21.7065 4.50354 21.7081C4.87978 21.7081 5.05995 21.9457 5.05995 22.373V23.7758L5.61636 23.7652Z" fill="black"/>
<mask id="mask0" mask-type="alpha" maskUnits="userSpaceOnUse" x="0" y="0" width="31" height="24">
<path fill-rule="evenodd" clip-rule="evenodd" d="M0 23.8974H30.8665V0H0V23.8974Z" fill="white"/>
</mask>
<g mask="url(#mask0)">
<path fill-rule="evenodd" clip-rule="evenodd" d="M11.2598 16.9614H19.6059V2.03125H11.2598V16.9614Z" fill="#FF5F00"/>
<path fill-rule="evenodd" clip-rule="evenodd" d="M11.7896 9.49727C11.7864 6.58324 13.13 3.82984 15.4328 2.03089C11.291 -1.20937 5.29445 -0.493592 2.03918 3.62913C-1.21582 7.75186 -0.49699 13.721 3.64509 16.961C7.1041 19.6669 11.9738 19.6669 15.4328 16.961C13.1308 15.1623 11.7872 12.4102 11.7896 9.49727Z" fill="#EB001B"/>
<path fill-rule="evenodd" clip-rule="evenodd" d="M30.8674 9.49745C30.8671 14.7411 26.5965 18.9917 21.3286 18.9917C19.1904 18.9917 17.1145 18.2764 15.4336 16.9612C19.5754 13.7212 20.2945 7.75205 17.0392 3.62932C16.5697 3.03486 16.0308 2.49816 15.4336 2.03108C19.5749 -1.20998 25.5714 -0.495514 28.8274 3.62695C30.1488 5.29983 30.8671 7.36646 30.8674 9.49482V9.49745Z" fill="#F79E1B"/>
<path fill-rule="evenodd" clip-rule="evenodd" d="M30.5662 15.5062V15.0098H30.4711L30.3598 15.3644L30.2485 15.0098H30.1635V15.5062H30.2324V15.1339L30.336 15.4566H30.4073L30.5106 15.1339V15.5098L30.5662 15.5062ZM29.9542 15.5062V15.0949H30.0787V15.0098H29.7637V15.0949H29.8985V15.5062H29.9542Z" fill="#F79E1B"/>
</g>
</svg>
