<svg width="36" height="24" viewBox="0 0 36 24" fill="none" xmlns="http://www.w3.org/2000/svg">
<rect width="36" height="24" fill="white"/>
<rect y="18" width="36" height="6" fill="#F7B600"/>
<rect width="36" height="6" fill="#1A1F7A"/>
<path fill-rule="evenodd" clip-rule="evenodd" d="M22.6605 8.32528C22.3047 8.16974 21.745 8 21.0479 8C19.2686 8 18.0161 9.05183 18.0057 10.5578C17.9944 11.6717 18.8995 12.2931 19.5818 12.6633C20.2831 13.0428 20.5187 13.2857 20.5159 13.6251C20.5111 14.1441 19.9562 14.382 19.4387 14.382C18.7182 14.382 18.3354 14.2649 17.7435 13.9755L17.512 13.8522L17.2603 15.5869C17.68 15.8028 18.458 15.9902 19.2654 16C21.1564 16 22.3851 14.961 22.3995 13.3528C22.406 12.4694 21.9264 11.7998 20.8878 11.2469C20.2589 10.8877 19.8729 10.6496 19.8773 10.2859C19.8777 9.96369 20.2034 9.61895 20.9083 9.61895C21.497 9.60842 21.9231 9.75916 22.2552 9.91665L22.4168 10.0054L22.6605 8.32528ZM14.3327 15.8851L15.4586 8.13506H17.2583L16.1325 15.8851H14.3327ZM25.7739 10.9712C25.7739 10.9712 25.2061 12.6919 25.0569 13.1374H26.551C26.4799 12.75 26.1345 10.9002 26.1345 10.9002L26.0131 10.2317C25.9651 10.3852 25.8981 10.5885 25.8472 10.7432L25.847 10.7437L25.847 10.7437L25.8469 10.7441L25.8466 10.745C25.8014 10.8823 25.7689 10.9808 25.7739 10.9712ZM27.2772 8.14295H25.8864C25.455 8.14295 25.1321 8.28007 24.9431 8.78538L22.2704 15.8878H24.1607C24.1607 15.8878 24.4691 14.9324 24.5391 14.7227C24.636 14.7227 25.0931 14.7236 25.5776 14.7245C26.124 14.7256 26.7052 14.7267 26.8442 14.7267C26.8981 14.9972 27.0633 15.8878 27.0633 15.8878H28.7337L27.2772 8.14295ZM12.8229 8.14158L11.0614 13.4252L10.8727 12.3512L10.242 8.79019C10.1332 8.29907 9.81703 8.15348 9.42619 8.13631H6.52398L6.5 8.29689C7.20607 8.4976 7.83744 8.78703 8.39076 9.14701L9.99119 15.8783L11.8959 15.8771L14.73 8.14158H12.8229Z" fill="#1A1F7A"/>
</svg>
